# xmcd
#
# Track frame offsets: 
#        150
#        16080
#        30899
#        49081
#        64231
#        72847
#        90365
#        105893
#        117546
#        128376
#        138768
#        152496
#        165010
#        178676
#
# Disc length: 2547 seconds
#
# Revision: 0
# Processed by: cddbd v1.5.2PL0 Copyright (c) Steve Scherf et al.
# Submitted via: ExactAudioCopyFreeDBPlugin 1.0
#
DISCID=9609f10e
DTITLE=Riders of the Purple Sage - Living the Cowboy Dream
DYEAR=2002
DGENRE=Country
TTITLE0=Living the Cowboy Dream
TTITLE1=Flower of South Texas
TTITLE2=Pony Express
TTITLE3=Red River Valley
TTITLE4=Cowboy Coffee
TTITLE5=Ridin' Down the Canyon
TTITLE6=Colorado Callin' Me
TTITLE7=Purple Sage
TTITLE8=RPS Breakdown
TTITLE9=Moonlight
TTITLE10=That Hour Before Dawn
TTITLE11=Rollin' Rollin' Prairies
TTITLE12=Wagon Wheels
TTITLE13=Cimarron
EXTD=
EXTT0=
EXTT1=
EXTT2=
EXTT3=
EXTT4=
EXTT5=
EXTT6=
EXTT7=
EXTT8=
EXTT9=
EXTT10=
EXTT11=
EXTT12=
EXTT13=
PLAYORDER=
